<?xml version="1.0" encoding="UTF-8"?>
<svg id="_Слой_1" data-name="Слой 1" xmlns="http://www.w3.org/2000/svg" viewBox="0 0 180.94 73.52">
  <defs>
    <style>
      .cls-1 {
        fill: #e6311d;
        stroke-width: 0px;
      }
    </style>
  </defs>
  <g>
    <path class="cls-1" d="m39.53,64.64c.83,0,1.51.3,2.05.89.53.59.8,1.34.8,2.24s-.27,1.65-.8,2.24c-.53.59-1.22.89-2.05.89-.56,0-1.06-.14-1.51-.42-.44-.28-.78-.66-1.02-1.14v4.18h-.58v-8.76h.58v1.45c.24-.48.58-.86,1.02-1.14.44-.28.94-.42,1.51-.42Zm-.09,5.7c.69,0,1.26-.24,1.7-.73.44-.49.66-1.1.66-1.84s-.22-1.37-.66-1.85c-.44-.48-1-.72-1.7-.72s-1.28.24-1.75.73c-.47.49-.7,1.1-.7,1.84s.23,1.36.7,1.84c.47.49,1.05.73,1.75.73Z"/>
    <path class="cls-1" d="m46.65,64.64c.92,0,1.65.31,2.19.92s.8,1.41.79,2.4h-5.43c.03.74.28,1.32.74,1.75.46.43,1.05.64,1.76.64.49,0,.92-.1,1.3-.31.38-.2.67-.5.86-.89h.6c-.24.57-.61,1-1.11,1.3-.5.3-1.05.45-1.68.45-.9,0-1.63-.29-2.21-.86-.58-.58-.86-1.32-.86-2.24s.29-1.67.86-2.27c.57-.59,1.3-.89,2.18-.89Zm0,.55c-.66,0-1.21.21-1.65.62-.45.41-.71.95-.79,1.6h4.81c-.07-.66-.32-1.19-.75-1.6-.43-.41-.97-.62-1.61-.62Z"/>
    <path class="cls-1" d="m58.2,64.76h.58v6.02h-7.73v-6.02h.58v5.47h2.99v-5.47h.58v5.47h3v-5.47Z"/>
    <path class="cls-1" d="m63.33,64.64c.92,0,1.65.31,2.19.92s.8,1.41.79,2.4h-5.43c.03.74.28,1.32.74,1.75.46.43,1.05.64,1.76.64.49,0,.92-.1,1.3-.31.38-.2.67-.5.86-.89h.6c-.24.57-.61,1-1.11,1.3-.5.3-1.05.45-1.68.45-.9,0-1.63-.29-2.21-.86-.58-.58-.86-1.32-.86-2.24s.29-1.67.86-2.27c.57-.59,1.3-.89,2.18-.89Zm0,.55c-.66,0-1.21.21-1.65.62-.45.41-.71.95-.79,1.6h4.81c-.07-.66-.32-1.19-.75-1.6-.43-.41-.97-.62-1.61-.62Z"/>
    <path class="cls-1" d="m72.52,64.76h.58v6.02h-.58v-2.81h-4.2v2.81h-.58v-6.02h.58v2.66h4.2v-2.66Z"/>
    <path class="cls-1" d="m79.4,64.76h.77v6.02h-.58v-3.27l.03-2.1-3.96,5.38h-.77v-6.02h.58v3.27l-.03,2.1,3.96-5.38Z"/>
    <path class="cls-1" d="m83.73,64.76h2.85v6.02h-.58v-2.39h-1.93l-1.96,2.39h-.73l2.03-2.4c-.58-.06-1.01-.23-1.31-.53-.3-.29-.45-.69-.45-1.18,0-.61.17-1.08.51-1.41.34-.34.87-.5,1.58-.5Zm.08,3.14h2.19v-2.61h-2.24c-.57,0-.97.12-1.19.37-.23.24-.34.58-.34,1.01,0,.82.53,1.23,1.59,1.23Z"/>
    <path class="cls-1" d="m96.98,64.76v6.02h-.58v-5.47h-4.17v5.47h-.58v-6.02h5.33Z"/>
    <path class="cls-1" d="m99.39,65.54c.6-.6,1.33-.9,2.19-.9s1.59.3,2.19.89.9,1.34.9,2.24-.3,1.63-.89,2.23c-.59.6-1.33.9-2.19.9s-1.6-.3-2.19-.9c-.59-.6-.89-1.34-.89-2.23s.3-1.63.9-2.23Zm3.96.39c-.48-.49-1.07-.73-1.77-.73s-1.29.24-1.77.73c-.48.49-.72,1.1-.72,1.84s.24,1.35.72,1.84c.48.49,1.07.73,1.77.73s1.29-.24,1.77-.73c.48-.49.72-1.1.72-1.84s-.24-1.36-.72-1.84Z"/>
    <path class="cls-1" d="m111.33,70.24h1.09v2.2h-.58v-1.65h-6.26v1.65h-.58v-2.2h1.01c.39-.25.68-1.01.89-2.28l.51-3.2h3.92v5.47Zm-4.62,0h4.04v-4.93h-2.85l-.44,2.66c-.17,1.12-.42,1.87-.76,2.27Z"/>
    <path class="cls-1" d="m121.89,70.78h-.8l-3.59-3.02v3.02h-.58v-6.02h.58v2.75l3.27-2.75h.79l-3.4,2.85,3.73,3.17Z"/>
    <path class="cls-1" d="m124.57,64.76h3.92v6.02h-.58v-5.47h-2.85l-.5,3.14c-.15.9-.35,1.53-.61,1.9s-.62.55-1.07.55c-.1,0-.23,0-.37-.02v-.54s.07,0,.13,0c.07,0,.11,0,.14,0,.34,0,.59-.13.77-.41.18-.27.32-.78.44-1.52l.59-3.67Z"/>
    <path class="cls-1" d="m135.4,64.64c.86,0,1.59.3,2.19.9.6.6.9,1.34.9,2.23s-.3,1.63-.89,2.23c-.6.6-1.33.9-2.19.9-.82,0-1.52-.27-2.1-.81-.58-.54-.9-1.22-.97-2.05h-1.47v2.74h-.58v-6.02h.58v2.74h1.47c.07-.82.39-1.51.97-2.05.58-.54,1.28-.81,2.09-.81Zm0,5.7c.71,0,1.3-.24,1.78-.73.48-.49.72-1.1.72-1.84s-.24-1.35-.73-1.84c-.49-.49-1.08-.73-1.78-.73s-1.28.24-1.77.73c-.49.49-.73,1.1-.73,1.84s.24,1.35.72,1.84c.48.49,1.07.73,1.77.73Z"/>
    <path class="cls-1" d="m143.99,64.76h.58v6.02h-.58v-2.31c-.55.26-1.2.39-1.97.39-1.53,0-2.3-.75-2.3-2.26v-1.85h.58v1.75c0,.63.14,1.1.43,1.39.29.29.75.44,1.37.44.34,0,.68-.04,1.05-.12.36-.08.64-.18.84-.3v-3.16Z"/>
  </g>
  <g>
    <path class="cls-1" d="m7.89,40.87c.85-.42,1.85-.63,3.03-.63,1,0,1.9.16,2.68.46.78.3,1.41.72,1.9,1.28.48.54.79,1.23.97,2.04h5.2c-.18-1.65-.74-3.09-1.69-4.34-.95-1.25-2.2-2.2-3.75-2.88-1.53-.68-3.31-1.02-5.3-1.02-2.2,0-4.11.4-5.74,1.21-1.64.83-2.91,1.97-3.81,3.43-.92,1.46-1.37,3.16-1.37,5.11s.46,3.65,1.37,5.11c.9,1.48,2.17,2.62,3.81,3.43s3.54,1.23,5.74,1.23c1.99,0,3.77-.35,5.3-1.04,1.55-.67,2.8-1.63,3.75-2.88.95-1.23,1.52-2.67,1.69-4.32h-5.2c-.18.81-.49,1.51-.97,2.07-.49.56-1.13.98-1.9,1.26-.78.28-1.67.42-2.68.42-1.18,0-2.18-.21-3.03-.63-.86-.42-1.52-1.04-1.96-1.83-.46-.79-.69-1.72-.69-2.83s.23-2.04.69-2.83c.44-.79,1.09-1.41,1.96-1.83Z"/>
    <polygon class="cls-1" points="22.23 40.76 29.39 40.76 29.39 54.89 34.59 54.89 34.59 40.76 41.76 40.76 41.76 36.16 22.23 36.16 22.23 40.76"/>
    <path class="cls-1" d="m80.52,36.99c-1.66-.81-3.61-1.21-5.85-1.21s-4.18.4-5.85,1.21c-1.67.83-2.98,1.97-3.89,3.43-.93,1.46-1.39,3.16-1.39,5.11s.46,3.65,1.39,5.11c.92,1.48,2.22,2.62,3.89,3.43s3.63,1.23,5.85,1.23,4.19-.42,5.85-1.23c1.67-.81,2.98-1.95,3.91-3.43.93-1.46,1.41-3.16,1.41-5.11s-.48-3.65-1.41-5.11c-.93-1.46-2.24-2.6-3.91-3.43Zm-.65,11.28c-.48.77-1.16,1.37-2.04,1.77-.88.42-1.94.63-3.15.63s-2.24-.21-3.14-.63c-.88-.4-1.57-1-2.04-1.77-.49-.76-.72-1.67-.72-2.74s.23-1.98.72-2.74c.48-.77,1.16-1.35,2.04-1.77.9-.42,1.94-.61,3.14-.61s2.27.19,3.15.61c.88.42,1.57,1,2.04,1.77.48.76.7,1.69.7,2.74s-.23,1.98-.7,2.74Z"/>
    <rect class="cls-1" x="94.86" y="31.65" width="6.52" height="3.63"/>
    <polygon class="cls-1" points="93.61 49.74 93.61 49.26 93.61 40.39 93.61 36.16 88.52 36.16 88.52 40.39 88.52 49.26 88.52 54.89 95.09 54.89 104.48 41.05 104.48 54.89 109.61 54.89 109.61 36.16 102.82 36.16 93.61 49.74"/>
    <path class="cls-1" d="m127.72,36.97c-1.15-.53-2.5-.81-4.07-.81h-10.54v18.72h5.18v-5.81h5.36c1.57,0,2.92-.26,4.07-.81,1.15-.53,2.01-1.28,2.63-2.25.6-.98.9-2.11.9-3.39s-.3-2.42-.9-3.41c-.62-.97-1.48-1.72-2.63-2.25Zm-2.43,7.34c-.48.4-1.13.61-1.96.61h-5.04v-4.62h5.04c.83,0,1.48.21,1.96.61.46.4.69.98.69,1.7s-.23,1.28-.69,1.69Z"/>
    <polygon class="cls-1" points="138.25 47.4 149.68 47.4 149.68 43.66 138.25 43.66 138.25 40.36 150.39 40.36 150.39 36.16 133.07 36.16 133.07 54.89 150.51 54.89 150.51 50.69 138.25 50.69 138.25 47.4"/>
    <polygon class="cls-1" points="172.94 36.16 167.24 49.83 161.52 36.16 153.5 36.16 153.5 54.89 158.44 54.89 158.44 40.78 164.6 54.89 169.86 54.89 176 40.71 176 54.89 180.94 54.89 180.94 36.16 172.94 36.16"/>
    <path class="cls-1" d="m58.58,36.97c-1.15-.53-2.5-.81-4.07-.81h-10.54v18.72h5.18v-5.81h5.36c1.57,0,2.92-.26,4.07-.81,1.15-.53,2.03-1.28,2.63-2.25.6-.98.9-2.11.9-3.39s-.3-2.42-.9-3.41c-.6-.97-1.48-1.72-2.63-2.25Zm-2.43,7.34c-.48.4-1.13.61-1.96.61h-5.04v-4.62h5.04c.83,0,1.48.21,1.96.61.46.4.69.98.69,1.7s-.23,1.28-.69,1.69Z"/>
  </g>
  <polygon class="cls-1" points="98.34 17.38 107.4 8.34 102.8 3.73 93.73 12.79 93.73 0 87.23 0 87.23 12.79 78.13 3.73 73.54 8.34 82.61 17.38 69.13 17.38 69.13 23.88 77.58 23.88 79.69 23.88 82.15 23.88 82.15 21.43 90.48 13.13 98.79 21.41 98.79 23.88 101.26 23.88 103.35 23.88 111.81 23.88 111.81 17.38 98.34 17.38"/>
</svg>